<?xml version="1.0" encoding="utf-8" ?>
<svg baseProfile="full" height="297mm" version="1.1" width="210mm" xmlns="http://www.w3.org/2000/svg" xmlns:ev="http://www.w3.org/2001/xml-events" xmlns:xlink="http://www.w3.org/1999/xlink"><defs /><rect fill="none" height="297mm" stroke="black" stroke-width="0.5" width="210mm" x="0" y="0" /><path d="M 43.671979 37.489251800000005 L 42.948248199999995 37.2618038 M 42.948248199999995 37.2618038 C 42.948248199999995 37.2618038, 42.45197579999999 44.29233120000001, 40.13603619999999 49.647936" fill="none" stroke="black" transform="translate(10,10)" /><path d="M 47.352666400000004 36.062468 C 47.352666400000004 36.062468, 50.268267400000006 42.6380786, 50.8058954 49.503181" fill="none" stroke="black" transform="translate(10,10)" /><path d="M 55.913366599999996 33.126189200000006 C 55.913366599999996 33.126189200000006, 60.3591404 34.1807674, 61.8893158 35.462804" fill="none" stroke="black" transform="translate(10.0,10)" /><path d="M 55.8513332 40.21875 C 55.8513332 40.21875, 59.6974456 40.859767, 62.240841 42.9896038" fill="none" stroke="black" transform="translate(10.0,10)" /><path d="M 55.3550608 47.1665636 C 55.3550608 47.1665636, 60.648634799999996 48.92419480000001, 62.861182799999995 51.03335380000001" fill="none" stroke="black" transform="translate(10.0,10)" /><path d="M 70.4467166 32.7230696 L 69.83260700000001 32.7230696 M 69.83260700000001 32.7230696 L 69.89108100000001 48.660578199999996 M 69.89108100000001 48.660578199999996 C 69.89108100000001 48.660578199999996, 69.861857 51.0292744, 71.85037080000001 51.058516600000004 M 71.85037080000001 51.058516600000004 C 73.83890280000001 51.0877666, 77.34808380000001 50.970792599999996, 77.34808380000001 50.970792599999996" fill="none" stroke="black" transform="translate(10.0,10)" /><path d="M 69.83260700000001 40.0046114 C 69.83260700000001 40.0046114, 74.453028 39.0980746, 77.28960980000001 37.723647" fill="none" stroke="black" transform="translate(10.0,10)" /><path d="M 92.1412622 41.3561642 L 81.1612334 41.3353642 M 81.1612334 41.3353642 L 81.1935774 41.9785236" fill="none" stroke="black" transform="translate(10.0,10)" /><path d="M 101.115521 30.210588200000004 L 100.37111240000002 30.334660200000002 M 100.37111240000002 30.334660200000002 L 100.37111240000002 36.538065200000005" fill="none" stroke="black" transform="translate(10.0,10)" /><path d="M 96.1321166 43.258420400000006 L 96.17345660000001 36.558740400000005 M 96.17345660000001 36.558740400000005 L 104.81686800000003 36.558740400000005 M 104.81686800000003 36.558740400000005 C 104.81686800000003 36.558740400000005, 105.47856800000002 46.4014772, 99.93685520000002 52.6669182" fill="none" stroke="black" transform="translate(10.0,10)" /><path d="M 110.91690220000001 32.175000000000004 C 110.91690220000001 32.175000000000004, 112.77792240000001 33.8912756, 113.2535222 35.0699232" fill="none" stroke="black" transform="translate(10.0,10)" /><path d="M 109.1799488 38.419763200000006 C 109.1799488 38.419763200000006, 111.2477496 40.384175, 111.68199120000001 41.6041782" fill="none" stroke="black" transform="translate(10.0,10)" /><path d="M 119.415569 38.8953578 C 119.415569 38.8953578, 117.63725740000001 46.194699199999995, 110.91690220000001 51.157423200000004 M 110.91690220000001 51.157423200000004 L 111.04097420000001 51.8397984" fill="none" stroke="black" transform="translate(10.0,10)" /><path d="M 128.78271120000002 31.203133 L 128.16237460000002 31.265169000000004 M 128.16237460000002 31.265169000000004 L 128.1829146 43.83740660000001 M 128.1829146 43.83740660000001 C 128.1829146 43.83740660000001, 128.0795386 50.226914400000005, 124.97781920000001 52.85302360000001" fill="none" stroke="black" transform="translate(10.0,10)" /><path d="M 122.4138812 38.6885772 L 133.786796 38.7093772" fill="none" stroke="black" transform="translate(10.0,10)" /><path d="M 137.28137800000002 34.284159 L 145.883439 34.242793000000006" fill="none" stroke="black" transform="translate(10.0,10)" /><path d="M 136.14408600000002 41.624856 L 147.26886199999998 41.60405600000001" fill="none" stroke="black" transform="translate(10.0,10)" /><path d="M 141.0654544 34.2428034 L 141.0654544 48.0350416 M 141.0654544 48.0350416 C 141.0654544 48.0350416, 140.8793464 50.4336924, 142.9264772 50.5577618 M 142.9264772 50.5577618 C 144.9736002 50.68183380000001, 146.6278476 50.599127800000005, 146.6278476 50.599127800000005" fill="none" stroke="black" transform="translate(10.0,10)" /><path d="M 151.8180274 35.7109428 L 159.1587244 35.7109428" fill="none" stroke="black" transform="translate(10.0,10)" /><path d="M 150.1017492 47.93165260000001 L 160.9163582 47.97301860000001" fill="none" stroke="black" transform="translate(10.0,10)" /><path d="M 167.1197632 31.782116600000002 L 166.4994188 31.885518600000005 M 166.4994188 31.885518600000005 L 166.4786188 44.9126704" fill="none" stroke="black" transform="translate(10.0,10)" /><path d="M 172.5167236 30.9963524 L 171.8136732 31.058388400000002 M 171.8136732 31.058388400000002 L 171.7516112 42.203842200000004 M 171.7516112 42.203842200000004 C 171.7516112 42.203842200000004, 171.89635320000002 48.4279276, 167.84346800000003 52.460140200000005" fill="none" stroke="black" transform="translate(10.0,10)" /><path d="M 175.3289408 38.626541200000005 L 163.3150064 38.6473412" fill="none" stroke="black" transform="translate(10.0,10)" /><path d="M 178.84420060000002 41.6041782 L 178.9682726 33.7878866 M 178.9682726 33.7878866 L 187.26015880000003 33.8086866 M 187.26015880000003 33.8086866 L 187.30149880000002 38.027001999999996 M 187.30149880000002 38.027001999999996 C 187.30149880000002 38.027001999999996, 187.590988 47.208044, 181.65639960000001 51.5504288" fill="none" stroke="black" transform="translate(10.0,10)" /><path d="M 191.92270760000002 35.1502502 C 191.92270760000002 35.1502502, 192.96084340000002 36.8317326, 193.57494520000003 40.7941768" fill="none" stroke="black" transform="translate(10.0,10)" /><path d="M 195.4611308 33.483392800000004 C 195.4611308 33.483392800000004, 196.7770662 36.232248, 197.05488140000003 38.9811032" fill="none" stroke="black" transform="translate(10.0,10)" /><path d="M 202.0408338 33.9659034 L 201.3974872 33.7612054 M 201.3974872 33.7612054 C 201.3974872 33.7612054, 202.21629480000001 45.9409704, 194.3206486 52.286730600000006" fill="none" stroke="black" transform="translate(10.0,10)" /><path d="M 204.87782900000002 37.2617934 L 216.35413020000001 37.2617934" fill="none" stroke="black" transform="translate(10.0,10)" /><path d="M 212.0324232 30.5621134 L 211.43275920000002 30.5621134 M 211.43275920000002 30.5621134 L 211.37069720000002 50.247589600000005 M 211.37069720000002 50.247589600000005 C 211.37069720000002 50.247589600000005, 211.59814520000003 52.62556260000001, 209.84052960000002 52.646240399999996 M 209.84052960000002 52.646240399999996 L 208.85832240000005 52.6361004" fill="none" stroke="black" transform="translate(10.0,10)" /><path d="M 205.0639318 49.792672800000005 C 205.0639318 49.792672800000005, 211.0605562 41.5835004, 210.8330952 37.303149" fill="none" stroke="black" transform="translate(10.0,10)" /><path d="M 221.9165208 32.3817806 L 221.25482080000003 32.3817806 M 221.25482080000003 32.3817806 L 221.23402080000002 44.0441846" fill="none" stroke="black" transform="translate(10.0,10)" /><path d="M 228.14060360000002 31.389235799999998 L 227.4168676 31.410035799999996 M 227.4168676 31.410035799999996 L 227.43766759999997 43.07243979999999 M 227.43766759999997 43.07243979999999 C 227.43766759999997 43.07243979999999, 227.4997296 49.33788079999999, 223.46748839999995 52.708398599999995" fill="none" stroke="black" transform="translate(10.0,10)" /><path d="M 232.60705520000002 34.0773784 L 242.21199600000003 34.015342399999994 M 242.21199600000003 34.015342399999994 L 242.5738588 33.746531 M 242.5738588 33.746531 L 242.93572680000003 34.211788 M 242.93572680000003 34.211788 L 242.5945418 34.5012798 M 242.5945418 34.5012798 C 242.5945418 34.5012798, 241.6019918 38.647224200000004, 239.596227 41.252652999999995" fill="none" stroke="black" transform="translate(10.0,10)" /><path d="M 238.54164360000001 37.2411156 L 237.9006292 37.2619156 M 237.9006292 37.2619156 L 237.8592892 43.610067799999996 M 237.8592892 43.610067799999996 C 237.8592892 43.610067799999996, 237.8800892 48.448724999999996, 234.7782632 52.4809402" fill="none" stroke="black" transform="translate(10.0,10)" /><path d="M 252.540665 30.417368800000002 L 251.8376146 30.458734800000002 M 251.8376146 30.458734800000002 L 251.81681460000001 53.1425258" fill="none" stroke="black" transform="translate(10.0,10)" /><path d="M 257.4413556 37.282471199999996 L 246.27522399999998 37.241113000000006" fill="none" stroke="black" transform="translate(10.0,10)" /><path d="M 249.35625000000002 41.9763812 L 248.81862200000003 41.6041782 M 248.81862200000003 41.6041782 C 248.81862200000003 41.6041782, 247.66065220000002 47.6835164, 246.58539880000004 49.4411476" fill="none" stroke="black" transform="translate(10.0,10)" /><path d="M 254.6291462 41.89367000000001 C 254.6291462 41.89367000000001, 256.94508579999996 46.58758000000001, 257.1518664 49.1723336" fill="none" stroke="black" transform="translate(10.0,10)" /><path d="M 261.784562 33.3079344 L 269.153846 33.3664084" fill="none" stroke="black" transform="translate(10.0,10)" /><path d="M 259.9422488 39.9753692 L 271.054654 39.9461192" fill="none" stroke="black" transform="translate(10.0,10)" /><path d="M 265.90785 39.9461244 L 265.90785 43.9524358 M 265.90785 43.9524358 C 265.90785 43.9524358, 266.22952200000003 49.5963598, 263.597646 52.95932200000001" fill="none" stroke="black" transform="translate(10.0,10)" /><path d="M -1506.112686 -741.506064 L 2083.437954 -741.506064 M 2083.437954 -741.506064 L 2083.437954 1168.284546 M 2083.437954 1168.284546 L -1506.112686 1168.284546 M -1506.112686 1168.284546 L -1506.112686 -741.506064" fill="none" stroke="black" transform="translate(10.0,10)" /><path d="M 273.919802 36.0941282 L 283.37868000000003 35.449206000000004 M 283.37868000000003 35.449206000000004 L 283.9161 35.08375 M 283.9161 35.08375 L 284.303058 35.621185600000004 M 284.303058 35.621185600000004 L 283.830118 35.92214860000001 M 283.830118 35.92214860000001 C 283.830118 35.92214860000001, 282.08882 42.736821400000004, 279.31566000000004 46.283892200000004" fill="none" stroke="black" transform="translate(10,10.0)" /><path d="M 276.864952 42.3498686 C 276.864952 42.3498686, 280.584018 47.4877468, 281.572876 50.905831600000006" fill="none" stroke="black" transform="translate(10,10.0)" /><path d="M -1506.112686 -741.506064 L 2083.437954 -741.506064 M 2083.437954 -741.506064 L 2083.437954 1168.284546 M 2083.437954 1168.284546 L -1506.112686 1168.284546 M -1506.112686 1168.284546 L -1506.112686 -741.506064" fill="none" stroke="black" transform="translate(10,10.0)" /><path d="M 292.042114 31.278709799999998 L 291.31120200000004 31.020737799999996 M 291.31120200000004 31.020737799999996 C 291.31120200000004 31.020737799999996, 291.24672200000003 36.180112799999996, 288.108106 43.489225" fill="none" stroke="black" transform="translate(10,10.0)" /><path d="M 299.179244 37.813919000000006 L 290.236336 37.856923" fill="none" stroke="black" transform="translate(10,10.0)" /><path d="M 295.35272000000003 37.8999088 C 295.35272000000003 37.8999088, 295.48168 47.595236, 291.268198 52.754608399999995" fill="none" stroke="black" transform="translate(10,10.0)" /><path d="M -1506.112686 -741.506064 L 2083.437954 -741.506064 M 2083.437954 -741.506064 L 2083.437954 1168.284546 M 2083.437954 1168.284546 L -1506.112686 1168.284546 M -1506.112686 1168.284546 L -1506.112686 -741.506064" fill="none" stroke="black" transform="translate(10,10.0)" /><path d="M 310.494704 32.2564242 L 309.734646 32.0132202 M 309.734646 32.0132202 C 309.734646 32.0132202, 309.096216 43.96116919999999, 302.650998 51.166421799999995" fill="none" stroke="black" transform="translate(10,10.0)" /><path d="M 304.74873 38.2456022 C 304.74873 38.2456022, 306.81606800000003 39.6744894, 310.464284 45.2684414" fill="none" stroke="black" transform="translate(10,10.0)" /><path d="M -1506.112686 -741.506064 L 2083.437954 -741.506064 M 2083.437954 -741.506064 L 2083.437954 1168.284546 M 2083.437954 1168.284546 L -1506.112686 1168.284546 M -1506.112686 1168.284546 L -1506.112686 -741.506064" fill="none" stroke="black" transform="translate(10,10.0)" /><path d="M 316.301466 35.4182244 C 316.483726 35.5094324, 324.965992 35.4790384, 324.965992 35.4790384" fill="none" stroke="black" transform="translate(10,10.0)" /><path d="M 320.70974 35.5702334 L 320.70974 48.126221" fill="none" stroke="black" transform="translate(10,10.0)" /><path d="M 326.06046200000003 48.430239 L 315.298204 48.491053" fill="none" stroke="black" transform="translate(10,10.0)" /><path d="M -1506.112686 -741.506064 L 2083.437954 -741.506064 M 2083.437954 -741.506064 L 2083.437954 1168.284546 M 2083.437954 1168.284546 L -1506.112686 1168.284546 M -1506.112686 1168.284546 L -1506.112686 -741.506064" fill="none" stroke="black" transform="translate(10,10.0)" /><path d="M 334.633806 30.7667308 L 333.782566 30.797124800000002 M 333.782566 30.797124800000002 L 333.752146 37.45514240000001 M 333.752146 37.45514240000001 C 333.752146 37.45514240000001, 333.965086 46.21089200000001, 329.678284 52.0480584" fill="none" stroke="black" transform="translate(10,10.0)" /><path d="M 329.131062 37.4247484 L 338.251628 37.3335404 M 338.251628 37.3335404 L 337.917216 48.4302364 M 337.917216 48.4302364 C 337.917216 48.4302364, 338.251628 51.6528402, 335.302656 51.5616348 M 335.302656 51.5616348 L 334.75540800000005 51.59202880000001" fill="none" stroke="black" transform="translate(10,10.0)" /><path d="M -1506.112686 -741.506064 L 2083.437954 -741.506064 M 2083.437954 -741.506064 L 2083.437954 1168.284546 M 2083.437954 1168.284546 L -1506.112686 1168.284546 M -1506.112686 1168.284546 L -1506.112686 -741.506064" fill="none" stroke="black" transform="translate(10,10.0)" /><path d="M 385.830614 33.107677200000005 L 392.88386800000006 33.1380712" fill="none" stroke="black" transform="translate(10,10.0)" /><path d="M 384.64493600000003 39.2488642 L 393.55269200000004 39.3096782 M 393.55269200000004 39.3096782 C 393.55269200000004 39.3096782, 394.09994 48.339046599999996, 387.50272600000005 52.8689304" fill="none" stroke="black" transform="translate(10,10.0)" /><path d="M -1506.112686 -741.506064 L 2083.437954 -741.506064 M 2083.437954 -741.506064 L 2083.437954 1168.284546 M 2083.437954 1168.284546 L -1506.112686 1168.284546 M -1506.112686 1168.284546 L -1506.112686 -741.506064" fill="none" stroke="black" transform="translate(10,10.0)" /><path d="M 402.369266 31.587582 L 401.57881399999997 31.587582 M 401.57881399999997 31.587582 L 401.670074 48.55184880000001 M 401.670074 48.55184880000001 C 401.670074 48.55184880000001, 401.30524199999996 50.9840006, 403.859014 50.89279520000001 M 403.859014 50.89279520000001 L 407.628806 50.8624012" fill="none" stroke="black" transform="translate(10,10.0)" /><path d="M 397.717762 40.6473522 L 407.719988 37.2423376 M 407.719988 37.2423376 L 407.99361200000004 37.6983672 M 407.99361200000004 37.6983672 C 407.99361200000004 37.6983672, 407.841512 41.0121738, 405.37905200000006 44.842816199999994" fill="none" stroke="black" transform="translate(10,10.0)" /><path d="M -1506.112686 -741.506064 L 2083.437954 -741.506064 M 2083.437954 -741.506064 L 2083.437954 1168.284546 M 2083.437954 1168.284546 L -1506.112686 1168.284546 M -1506.112686 1168.284546 L -1506.112686 -741.506064" fill="none" stroke="black" transform="translate(10,10.0)" /><path d="M 417.539798 30.2802994 L 416.749372 30.341113399999998 M 416.749372 30.341113399999998 L 416.749372 35.9350654" fill="none" stroke="black" transform="translate(10,10.0)" /><path d="M 412.614696 36.1478702 L 419.72876399999996 35.4486262 M 419.72876399999996 35.4486262 L 420.09357 36.0566622 M 420.09357 36.0566622 C 420.09357 36.0566622, 417.05339 42.593075199999994, 412.037054 46.727733" fill="none" stroke="black" transform="translate(10,10.0)" /><path d="M 416.749372 53.2945452 L 416.718952 41.802623200000006" fill="none" stroke="black" transform="translate(10,10.0)" /><path d="M 419.42472000000004 42.623477 C 419.42472000000004 42.623477, 421.24882800000006 44.2955812, 422.43453200000005 46.6669294" fill="none" stroke="black" transform="translate(10,10.0)" /><path d="M -1506.112686 -741.506064 L 2083.437954 -741.506064 M 2083.437954 -741.506064 L 2083.437954 1168.284546 M 2083.437954 1168.284546 L -1506.112686 1168.284546 M -1506.112686 1168.284546 L -1506.112686 -741.506064" fill="none" stroke="black" transform="translate(10,10.0)" /><path d="M 426.75159800000006 34.8709894 L 433.2879980000001 34.0197364 M 433.2879980000001 34.0197364 L 433.59201600000006 34.4757634 M 433.59201600000006 34.4757634 C 433.59201600000006 34.4757634, 429.5789680000001 47.943810199999994, 425.68752200000006 51.288018599999994" fill="none" stroke="black" transform="translate(10,10.0)" /><path d="M 435.689748 50.9840006 C 435.689748 50.9840006, 433.348812 45.42045040000001, 430.947062 42.623477" fill="none" stroke="black" transform="translate(10,10.0)" /><path d="M -1506.112686 -741.506064 L 2083.437954 -741.506064 M 2083.437954 -741.506064 L 2083.437954 1168.284546 M 2083.437954 1168.284546 L -1506.112686 1168.284546 M -1506.112686 1168.284546 L -1506.112686 -741.506064" fill="none" stroke="black" transform="translate(10,10.0)" /><path d="M 444.35429999999997 30.888338 L 443.594242 30.645134 M 443.594242 30.645134 C 443.594242 30.645134, 442.59098 38.0631992, 440.128442 42.5018776" fill="none" stroke="black" transform="translate(10,10.0)" /><path d="M 442.773396 35.38782 L 447.63771 35.327006000000004 M 447.63771 35.327006000000004 L 447.97212200000007 35.0533898 M 447.97212200000007 35.0533898 L 448.48895000000005 35.6006222 M 448.48895000000005 35.6006222 L 447.97212200000007 35.9046428 M 447.97212200000007 35.9046428 C 447.97212200000007 35.9046428, 447.88086200000004 45.4508418, 441.77013400000004 52.9905142" fill="none" stroke="black" transform="translate(10,10.0)" /><path d="M 443.503034 41.224989 C 443.503034 41.224989, 446.30001000000004 44.1131678, 447.789706 46.727733" fill="none" stroke="black" transform="translate(10,10.0)" /><path d="M -1506.112686 -741.506064 L 2083.437954 -741.506064 M 2083.437954 -741.506064 L 2083.437954 1168.284546 M 2083.437954 1168.284546 L -1506.112686 1168.284546 M -1506.112686 1168.284546 L -1506.112686 -741.506064" fill="none" stroke="black" transform="translate(10,10.0)" /><path d="M 453.96130000000005 34.536567000000005 L 461.07534200000003 33.98933460000001 M 461.07534200000003 33.98933460000001 L 461.500962 33.715715800000005 M 461.500962 33.715715800000005 L 462.108998 34.384558000000006 M 462.108998 34.384558000000006 L 461.59217 34.7493822 M 461.59217 34.7493822 C 461.59217 34.7493822, 461.014528 43.3531202, 453.74849000000006 51.28801860000001" fill="none" stroke="black" transform="translate(10,10.0)" /><path d="M 455.663806 39.4920786 C 455.663806 39.4920786, 460.71051 44.6908046, 462.5650380000001 49.7071198" fill="none" stroke="black" transform="translate(10,10.0)" /><path d="M -1506.112686 -741.506064 L 2083.437954 -741.506064 M 2083.437954 -741.506064 L 2083.437954 1168.284546 M 2083.437954 1168.284546 L -1506.112686 1168.284546 M -1506.112686 1168.284546 L -1506.112686 -741.506064" fill="none" stroke="black" transform="translate(10,10.0)" /><path d="M 466.699688 43.930757 L 470.287116 36.9079178 M 470.287116 36.9079178 C 470.287116 36.9079178, 470.77355000000006 35.570233400000006, 471.594396 36.9991258 M 471.594396 36.9991258 C 471.594396 36.9991258, 475.881068 45.2076378, 477.49239200000005 47.09255720000001" fill="none" stroke="black" transform="translate(10,10.0)" /><path d="M -1506.112686 -741.506064 L 2083.437954 -741.506064 M 2083.437954 -741.506064 L 2083.437954 1168.284546 M 2083.437954 1168.284546 L -1506.112686 1168.284546 M -1506.112686 1168.284546 L -1506.112686 -741.506064" fill="none" stroke="black" transform="translate(10,10.0)" /><path d="M 482.56949 33.442099600000006 L 493.179752 33.411705600000005 M 493.179752 33.411705600000005 L 493.11891199999997 50.5887824 M 493.11891199999997 50.5887824 L 482.691066 50.6495964 M 482.691066 50.6495964 L 482.56949 33.442099600000006" fill="none" stroke="black" transform="translate(10,10.0)" /><path d="M 482.59988400000003 42.0458402 L 493.118964 42.0762342" fill="none" stroke="black" transform="translate(10,10.0)" /><path d="M -1506.112686 -741.506064 L 2083.437954 -741.506064 M 2083.437954 -741.506064 L 2083.437954 1168.284546 M 2083.437954 1168.284546 L -1506.112686 1168.284546 M -1506.112686 1168.284546 L -1506.112686 -741.506064" fill="none" stroke="black" transform="translate(10,10.0)" /><path d="M 47.6397896 172.2268132 C 47.6397896 172.2268132, 41.9546348 171.31475400000002, 41.833025 181.40819060000004 M 41.833025 181.40819060000004 C 41.711423 191.5016194, 47.3357716 190.89358340000004, 47.3357716 190.89358340000004 M 47.3357716 190.89358340000004 C 47.3357716 190.89358340000004, 53.2945452 191.80563740000005, 52.960125399999995 181.56019960000003 M 52.960125399999995 181.56019960000003 C 52.625703 171.31475400000002, 47.6397896 172.2268132, 47.6397896 172.2268132" fill="none" stroke="black" transform="translate(10,10.0)" /><path d="M -1506.112686 -741.506064 L 2083.437954 -741.506064 M 2083.437954 -741.506064 L 2083.437954 1168.284546 M 2083.437954 1168.284546 L -1506.112686 1168.284546 M -1506.112686 1168.284546 L -1506.112686 -741.506064" fill="none" stroke="black" transform="translate(10,10.0)" /><path d="M 60.7430122 175.20619480000002 C 60.7430122 175.20619480000002, 65.364104 175.05417280000003, 65.54651480000001 172.4700276 M 65.54651480000001 172.4700276 L 65.3337048 190.6199672" fill="none" stroke="black" transform="translate(10,147.94072292009685)" /><path d="M 70.16760140000001 190.6503638 L 60.5606014 190.61996979999998" fill="none" stroke="black" transform="translate(10,147.94072292009685)" /><path d="M -1506.112686 -741.506064 L 2083.437954 -741.506064 M 2083.437954 -741.506064 L 2083.437954 1168.284546 M 2083.437954 1168.284546 L -1506.112686 1168.284546 M -1506.112686 1168.284546 L -1506.112686 -741.506064" fill="none" stroke="black" transform="translate(10,147.94072292009685)" /><path d="M 77.0080324 173.5340906 C 77.0080324 173.5340906, 85.4139104 169.2882854, 86.8278528 176.0878522 M 86.8278528 176.0878522 C 87.3922634 178.80207539999998, 86.0352194 181.1030208, 83.4231008 183.59436419999997 M 83.4231008 183.59436419999997 C 80.81097960000001 186.08570759999998, 76.8560208 189.5254946, 76.8560208 189.5254946 M 76.8560208 189.5254946 L 76.7648128 190.37675279999996 M 76.7648128 190.37675279999996 L 88.7735654 190.46796079999996" fill="none" stroke="black" transform="translate(10,273.0141753200968)" /><path d="M -1506.112686 -741.506064 L 2083.437954 -741.506064 M 2083.437954 -741.506064 L 2083.437954 1168.284546 M 2083.437954 1168.284546 L -1506.112686 1168.284546 M -1506.112686 1168.284546 L -1506.112686 -741.506064" fill="none" stroke="black" transform="translate(10,273.0141753200968)" /><path d="M 94.5455446 173.6129668 C 94.5455446 173.6129668, 102.456588 170.64632520000004, 104.4343482 174.6878354 M 104.4343482 174.6878354 C 106.41210840000001 178.72934560000002, 100.8227844 180.19116960000002, 100.8227844 180.19116960000002 M 100.8227844 180.19116960000002 L 99.01700380000001 180.36315960000002 M 99.01700380000001 180.36315960000002 L 99.06000780000001 180.922092 M 99.06000780000001 180.922092 C 99.06000780000001 180.922092, 105.2942514 180.922092, 105.2512552 185.13558179999998 M 105.2512552 185.13558179999998 C 105.2082512 189.34907159999997, 102.370606 190.2519606, 102.370606 190.2519606 M 102.370606 190.2519606 C 102.370606 190.2519606, 98.07112639999998 192.18672719999998, 93.98662 189.6930282" fill="none" stroke="black" transform="translate(10,374.70857072009676)" /><path d="M -1506.112686 -741.506064 L 2083.437954 -741.506064 M 2083.437954 -741.506064 L 2083.437954 1168.284546 M 2083.437954 1168.284546 L -1506.112686 1168.284546 M -1506.112686 1168.284546 L -1506.112686 -741.506064" fill="none" stroke="black" transform="translate(10,374.70857072009676)" /><path d="M 124.34094660000001 184.7916226 L 110.41063280000002 184.7486186 M 110.41063280000002 184.7486186 L 110.3676288 183.75973719999996 M 110.3676288 183.75973719999996 L 120.42840940000002 172.53809559999996 M 120.42840940000002 172.53809559999996 L 120.42841200000001 191.06885459999995" fill="none" stroke="black" transform="translate(10,460.4245227021957)" /><path d="M -1506.112686 -741.506064 L 2083.437954 -741.506064 M 2083.437954 -741.506064 L 2083.437954 1168.284546 M 2083.437954 1168.284546 L -1506.112686 1168.284546 M -1506.112686 1168.284546 L -1506.112686 -741.506064" fill="none" stroke="black" transform="translate(10,460.4245227021957)" /><path d="M 140.8509362 172.7100752 L 130.7471594 172.75307920000003 M 130.7471594 172.75307920000003 L 130.9621274 180.36315700000003 M 130.9621274 180.36315700000003 C 130.9621274 180.36315700000003, 140.50697180000003 178.8153432, 140.4639782 185.3075588 M 140.4639782 185.3075588 C 140.42097420000002 191.7997718, 133.8427792 190.85388659999998, 133.8427792 190.85388659999998 M 133.8427792 190.85388659999998 C 133.8427792 190.85388659999998, 131.30608660000001 190.8968906, 129.2853328 189.65003199999998" fill="none" stroke="black" transform="translate(10,527.1524307021956)" /><path d="M -1506.112686 -741.506064 L 2083.437954 -741.506064 M 2083.437954 -741.506064 L 2083.437954 1168.284546 M 2083.437954 1168.284546 L -1506.112686 1168.284546 M -1506.112686 1168.284546 L -1506.112686 -741.506064" fill="none" stroke="black" transform="translate(10,527.1524307021956)" /><path d="M 146.2682806 172.5810918 L 158.26382519999999 172.7530818 M 158.26382519999999 172.7530818 L 158.39281119999998 173.87094659999997 M 158.39281119999998 173.87094659999997 L 149.23491959999998 190.59591979999996" fill="none" stroke="black" transform="translate(10,577.2035397697613)" /><path d="M -1506.112686 -741.506064 L 2083.437954 -741.506064 M 2083.437954 -741.506064 L 2083.437954 1168.284546 M 2083.437954 1168.284546 L -1506.112686 1168.284546 M -1506.112686 1168.284546 L -1506.112686 -741.506064" fill="none" stroke="black" transform="translate(10,577.2035397697613)" /><path d="M 170.81830480000002 181.30903440000003 C 170.81830480000002 181.30903440000003, 175.289764 179.2022882, 175.03179459999998 176.36463260000002 M 175.03179459999998 176.36463260000002 C 174.7738226 173.52697700000002, 172.495102 171.93616960000003, 169.8724196 171.93616960000003 M 169.8724196 171.93616960000003 C 167.2497372 171.93616960000003, 164.4120816 173.82794000000004, 164.5840612 176.2356492 M 164.5840612 176.2356492 C 164.7560512 178.6433584, 168.1526288 180.27715940000004, 168.1526288 180.27715940000004 M 168.1526288 180.27715940000004 L 173.226014 182.46989280000005 M 173.226014 182.46989280000005 C 173.226014 182.46989280000005, 176.06366960000003 183.32978820000005, 175.6337206 187.02734180000004 M 175.6337206 187.02734180000004 C 175.2037742 190.72489280000005, 170.9042946 190.98286220000006, 170.9042946 190.98286220000006 M 170.9042946 190.98286220000006 C 170.9042946 190.98286220000006, 164.88502419999998 191.54179460000006, 164.06812239999996 187.24231500000008 M 164.06812239999996 187.24231500000008 C 163.25122319999997 182.94283540000006, 168.41059819999998 180.49213260000005, 168.41059819999998 180.49213260000005" fill="none" stroke="black" transform="translate(10,609.4066483697612)" /><path d="M -1506.112686 -741.506064 L 2083.437954 -741.506064 M 2083.437954 -741.506064 L 2083.437954 1168.284546 M 2083.437954 1168.284546 L -1506.112686 1168.284546 M -1506.112686 1168.284546 L -1506.112686 -741.506064" fill="none" stroke="black" transform="translate(10,609.4066483697612)" /><path d="M 192.96062240000003 181.13705480000002 C 192.96062240000003 181.13705480000002, 190.16596040000002 183.37278440000003, 186.68338260000004 183.20080480000001 M 186.68338260000004 183.20080480000001 C 183.20080480000001 183.02881480000002, 181.39502420000002 180.87908540000004, 181.48101400000002 177.7834604 M 181.48101400000002 177.7834604 C 181.56699600000002 174.6878354, 183.93171680000003 172.065153, 186.85536220000003 172.1081492 M 186.85536220000003 172.1081492 C 189.77900760000003 172.1511532, 192.35869640000007 174.257889, 192.83163900000005 177.48249740000003 M 192.83163900000005 177.48249740000003 C 193.30458160000003 180.70710580000002, 193.13260200000002 185.73749740000002, 191.36981500000005 187.84424360000003 M 191.36981500000005 187.84424360000003 C 189.60702800000004 189.95098720000004, 186.76937240000004 191.62778440000002, 182.77085580000002 190.767889" fill="none" stroke="black" transform="translate(10,624.7352381837957)" /><path d="M -1506.112686 -741.506064 L 2083.437954 -741.506064 M 2083.437954 -741.506064 L 2083.437954 1168.284546 M 2083.437954 1168.284546 L -1506.112686 1168.284546 M -1506.112686 1168.284546 L -1506.112686 -741.506064" fill="none" stroke="black" transform="translate(10,624.7352381837957)" /><path d="M 198.9798928 172.6670816 L 211.9643214 172.6240776 M 211.9643214 172.6240776 L 211.9213174 173.3979858 M 211.9213174 173.3979858 L 199.02288119999997 189.43504059999998 M 199.02288119999997 189.43504059999998 L 199.0658852 190.3809284 M 199.0658852 190.3809284 L 212.95320279999999 190.3809284" fill="none" stroke="black" transform="translate(10,624.7352381837957)" /><path d="M -1506.112686 -741.506064 L 2083.437954 -741.506064 M 2083.437954 -741.506064 L 2083.437954 1168.284546 M 2083.437954 1168.284546 L -1506.112686 1168.284546 M -1506.112686 1168.284546 L -1506.112686 -741.506064" fill="none" stroke="black" transform="translate(10,624.7352381837957)" /><path d="M 221.6381492 177.7404668 L 220.73525759999998 177.8049208 M 220.73525759999998 177.8049208 L 220.79971159999997 179.2237486 M 220.79971159999997 179.2237486 L 221.7241 179.2237486 M 221.7241 179.2237486 L 221.6381492 177.7404668" fill="none" stroke="black" transform="translate(10,624.7352381837957)" /><path d="M 221.83162560000002 188.7901288 L 220.6707646 188.7685488 M 220.6707646 188.7685488 L 220.69234460000004 190.57432939999998 M 220.69234460000004 190.57432939999998 L 221.85320560000002 190.59590939999998 M 221.85320560000002 190.59590939999998 L 221.83162560000002 188.7901288" fill="none" stroke="black" transform="translate(10,624.7352381837957)" /><path d="M -1506.112686 -741.506064 L 2083.437954 -741.506064 M 2083.437954 -741.506064 L 2083.437954 1168.284546 M 2083.437954 1168.284546 L -1506.112686 1168.284546 M -1506.112686 1168.284546 L -1506.112686 -741.506064" fill="none" stroke="black" transform="translate(10,624.7352381837957)" /><path d="M 233.09626079999998 188.704139 L 232.08588260000002 188.74714300000002 M 232.08588260000002 188.74714300000002 L 232.0428786 190.4884332 M 232.0428786 190.4884332 L 233.139244 190.5528872 M 233.139244 190.5528872 L 233.09626079999998 188.704139" fill="none" stroke="black" transform="translate(10,624.7352381837957)" /><path d="M -1506.112686 -741.506064 L 2083.437954 -741.506064 M 2083.437954 -741.506064 L 2083.437954 1168.284546 M 2083.437954 1168.284546 L -1506.112686 1168.284546 M -1506.112686 1168.284546 L -1506.112686 -741.506064" fill="none" stroke="black" transform="translate(10,624.7352381837957)" /><path d="M 244.9843188 180.72860520000003 L 243.5224974 180.75018520000003 M 243.5224974 180.75018520000003 L 243.58695139999998 182.53446900000003 M 243.58695139999998 182.53446900000003 L 245.04877539999998 182.55604900000003 M 245.04877539999998 182.55604900000003 L 244.9843188 180.72860520000003" fill="none" stroke="black" transform="translate(10,624.7352381837957)" /><path d="M -1506.112686 -741.506064 L 2083.437954 -741.506064 M 2083.437954 -741.506064 L 2083.437954 1168.284546 M 2083.437954 1168.284546 L -1506.112686 1168.284546 M -1506.112686 1168.284546 L -1506.112686 -741.506064" fill="none" stroke="black" transform="translate(10,624.7352381837957)" /><path d="M 255.0021058 179.954697 L 269.964292 179.97627700000004" fill="none" stroke="black" transform="translate(10,624.7352381837957)" /><path d="M 255.0236026 185.6515076 L 269.94279 185.6515076" fill="none" stroke="black" transform="translate(10,624.7352381837957)" /><path d="M -1506.112686 -741.506064 L 2083.437954 -741.506064 M 2083.437954 -741.506064 L 2083.437954 1168.284546 M 2083.437954 1168.284546 L -1506.112686 1168.284546 M -1506.112686 1168.284546 L -1506.112686 -741.506064" fill="none" stroke="black" transform="translate(10,624.7352381837957)" /><path d="M 276.900572 173.62530120000002 L 288.240498 180.1313072" fill="none" stroke="black" transform="translate(10,624.7352381837957)" /><path d="M 288.240498 173.62530120000002 L 276.80936399999996 180.25291700000002" fill="none" stroke="black" transform="translate(10,624.7352381837957)" /><path d="M 282.494524 171.1323458 L 282.372844 182.6242626" fill="none" stroke="black" transform="translate(10,624.7352381837957)" /><path d="M -1506.112686 -741.506064 L 2083.437954 -741.506064 M 2083.437954 -741.506064 L 2083.437954 1168.284546 M 2083.437954 1168.284546 L -1506.112686 1168.284546 M -1506.112686 1168.284546 L -1506.112686 -741.506064" fill="none" stroke="black" transform="translate(10,624.7352381837957)" /><path d="M 302.438188 174.96298299999998 L 302.407768 190.6503638" fill="none" stroke="black" transform="translate(10,624.7352381837957)" /><path d="M 310.494704 182.8978814 L 294.44248600000003 182.8978814" fill="none" stroke="black" transform="translate(10,624.7352381837957)" /><path d="M -1506.112686 -741.506064 L 2083.437954 -741.506064 M 2083.437954 -741.506064 L 2083.437954 1168.284546 M 2083.437954 1168.284546 L -1506.112686 1168.284546 M -1506.112686 1168.284546 L -1506.112686 -741.506064" fill="none" stroke="black" transform="translate(10,624.7352381837957)" /><path d="M 316.271046 182.7762716 L 323.74992000000003 182.8066656" fill="none" stroke="black" transform="translate(10,624.7352381837957)" /><path d="M -1506.112686 -741.506064 L 2083.437954 -741.506064 M 2083.437954 -741.506064 L 2083.437954 1168.284546 M 2083.437954 1168.284546 L -1506.112686 1168.284546 M -1506.112686 1168.284546 L -1506.112686 -741.506064" fill="none" stroke="black" transform="translate(10,624.7352381837957)" /><path d="M 344.757634 176.5438844 L 330.559944 182.806676 M 330.559944 182.806676 L 344.605638 189.0998694" fill="none" stroke="black" transform="translate(10,624.7352381837957)" /><path d="M -1506.112686 -741.506064 L 2083.437954 -741.506064 M 2083.437954 -741.506064 L 2083.437954 1168.284546 M 2083.437954 1168.284546 L -1506.112686 1168.284546 M -1506.112686 1168.284546 L -1506.112686 -741.506064" fill="none" stroke="black" transform="translate(10,624.7352381837957)" /><path d="M 352.90535800000004 176.3614684 L 366.920632 182.5938634 M 366.920632 182.5938634 L 353.118168 189.0390632" fill="none" stroke="black" transform="translate(10,624.7352381837957)" /><path d="M -1506.112686 -741.506064 L 2083.437954 -741.506064 M 2083.437954 -741.506064 L 2083.437954 1168.284546 M 2083.437954 1168.284546 L -1506.112686 1168.284546 M -1506.112686 1168.284546 L -1506.112686 -741.506064" fill="none" stroke="black" transform="translate(10,624.7352381837957)" /><path d="M 377.62210200000004 171.34515320000003 L 377.59168200000005 180.80014680000002" fill="none" stroke="black" transform="translate(10,624.7352381837957)" /><path d="M 377.56131400000004 186.7285238 L 377.53089400000005 196.335529" fill="none" stroke="black" transform="translate(10,624.7352381837957)" /><path d="M -1506.112686 -741.506064 L 2083.437954 -741.506064 M 2083.437954 -741.506064 L 2083.437954 1168.284546 M 2083.437954 1168.284546 L -1506.112686 1168.284546 M -1506.112686 1168.284546 L -1506.112686 -741.506064" fill="none" stroke="black" transform="translate(10,624.7352381837957)" /><path d="M 390.02607800000004 171.2843548 L 390.086918 196.15311300000002" fill="none" stroke="black" transform="translate(10,624.7352381837957)" /><path d="M -1506.112686 -741.506064 L 2083.437954 -741.506064 M 2083.437954 -741.506064 L 2083.437954 1168.284546 M 2083.437954 1168.284546 L -1506.112686 1168.284546 M -1506.112686 1168.284546 L -1506.112686 -741.506064" fill="none" stroke="black" transform="translate(10,624.7352381837957)" /><path d="M 397.74818200000004 183.56672100000003 L 408.4800460000001 183.56672100000003" fill="none" stroke="black" transform="translate(10,624.7352381837957)" /><path d="M 411.520226 183.597128 L 422.25211599999994 183.65794200000002" fill="none" stroke="black" transform="translate(10,624.7352381837957)" /><path d="M -1506.112686 -741.506064 L 2083.437954 -741.506064 M 2083.437954 -741.506064 L 2083.437954 1168.284546 M 2083.437954 1168.284546 L -1506.112686 1168.284546 M -1506.112686 1168.284546 L -1506.112686 -741.506064" fill="none" stroke="black" transform="translate(10,624.7352381837957)" /></svg>