<?xml version="1.0" encoding="utf-8" ?>
<svg baseProfile="full" height="297mm" version="1.1" width="210mm" xmlns="http://www.w3.org/2000/svg" xmlns:ev="http://www.w3.org/2001/xml-events" xmlns:xlink="http://www.w3.org/1999/xlink"><defs /><rect fill="none" height="297mm" stroke="black" stroke-width="0.5" width="210mm" x="0" y="0" /><path d="M 67.18766 57.675772 L 66.07422799999999 57.325852000000005 M 66.07422799999999 57.325852000000005 C 66.07422799999999 57.325852000000005, 65.31073199999999 68.142048, 61.74774799999999 76.38144" fill="none" stroke="black" transform="translate(5,5)" /><path d="M 72.850256 55.48072 C 72.850256 55.48072, 77.335796 65.597044, 78.162916 76.15874" fill="none" stroke="black" transform="translate(5,5)" /><path d="M 86.020564 50.963368 C 86.020564 50.963368, 92.860216 52.585796, 95.214332 54.55816" fill="none" stroke="black" transform="translate(5,5)" /><path d="M 85.925128 61.875 C 85.925128 61.875, 91.842224 62.86118, 95.75514 66.137852" fill="none" stroke="black" transform="translate(5,5)" /><path d="M 85.161632 72.563944 C 85.161632 72.563944, 93.30559199999999 75.267992, 96.70951199999999 78.51285200000001" fill="none" stroke="black" transform="translate(5,5)" /><path d="M 108.379564 50.343184 L 107.43478 50.343184 M 107.43478 50.343184 L 107.52474000000001 74.862428 M 107.52474000000001 74.862428 C 107.52474000000001 74.862428, 107.47978 78.506576, 110.539032 78.551564 M 110.539032 78.551564 C 113.598312 78.596564, 118.99705200000001 78.41660399999999, 118.99705200000001 78.41660399999999" fill="none" stroke="black" transform="translate(5,5)" /><path d="M 107.43478 61.545556 C 107.43478 61.545556, 114.54312 60.150884, 118.907092 58.036379999999994" fill="none" stroke="black" transform="translate(5,5)" /><path d="M 141.755788 63.624868 L 124.863436 63.592868 M 124.863436 63.592868 L 124.913196 64.582344" fill="none" stroke="black" transform="translate(5,5)" /><path d="M 155.56234 46.477828 L 154.41709600000002 46.668708 M 154.41709600000002 46.668708 L 154.41709600000002 56.212408" fill="none" stroke="black" transform="translate(5,5)" /><path d="M 147.895564 66.551416 L 147.95916400000002 56.244216 M 147.95916400000002 56.244216 L 161.25672000000003 56.244216 M 161.25672000000003 56.244216 C 161.25672000000003 56.244216, 162.27472000000003 71.386888, 153.74900800000003 81.026028" fill="none" stroke="black" transform="translate(5,5)" /><path d="M 170.641388 49.5 C 170.641388 49.5, 173.50449600000002 52.140424, 174.236188 53.953728" fill="none" stroke="black" transform="translate(5,5)" /><path d="M 167.969152 59.107328 C 167.969152 59.107328, 171.150384 62.1295, 171.81844800000002 64.006428" fill="none" stroke="black" transform="translate(5,5)" /><path d="M 183.71626 59.839012 C 183.71626 59.839012, 180.980396 71.06876799999999, 170.641388 78.703728 M 170.641388 78.703728 L 170.832268 79.753536" fill="none" stroke="black" transform="translate(5,5)" /><path d="M 198.127248 48.00482 L 197.172884 48.100260000000006 M 197.172884 48.100260000000006 L 197.204484 67.442164 M 197.204484 67.442164 C 197.204484 67.442164, 197.045444 77.272176, 192.273568 81.31234400000001" fill="none" stroke="black" transform="translate(5,5)" /><path d="M 188.329048 59.520888 L 205.82584 59.552887999999996" fill="none" stroke="black" transform="translate(5,5)" /><path d="M 211.20212 52.74486 L 224.43606 52.68122" fill="none" stroke="black" transform="translate(5,5)" /><path d="M 209.45244 64.03824 L 226.56748 64.00624" fill="none" stroke="black" transform="translate(5,5)" /><path d="M 217.023776 52.681236 L 217.023776 73.900064 M 217.023776 73.900064 C 217.023776 73.900064, 216.737456 77.590296, 219.886888 77.781172 M 219.886888 77.781172 C 223.036308 77.972052, 225.581304 77.844812, 225.581304 77.844812" fill="none" stroke="black" transform="translate(5,5)" /><path d="M 233.566196 54.939912 L 244.859576 54.939912" fill="none" stroke="black" transform="translate(5,5)" /><path d="M 230.925768 73.741004 L 247.563628 73.80464400000001" fill="none" stroke="black" transform="translate(5,5)" /><path d="M 257.107328 48.895564 L 256.15295199999997 49.054644 M 256.15295199999997 49.054644 L 256.120952 69.096416" fill="none" stroke="black" transform="translate(5,5)" /><path d="M 265.410344 47.686696 L 264.328728 47.782136 M 264.328728 47.782136 L 264.233248 64.928988 M 264.233248 64.928988 C 264.233248 64.928988, 264.45592800000003 74.504504, 258.22072000000003 80.707908" fill="none" stroke="black" transform="translate(5,5)" /><path d="M 269.736832 59.425448 L 251.25385599999998 59.457448" fill="none" stroke="black" transform="translate(5,5)" /><path d="M 275.144924 64.006428 L 275.335804 51.981364 M 275.335804 51.981364 L 288.092552 52.013363999999996 M 288.092552 52.013363999999996 L 288.156152 58.50308 M 288.156152 58.50308 C 288.156152 58.50308, 288.60152 72.62776, 279.471384 79.308352" fill="none" stroke="black" transform="translate(5,5)" /><path d="M 295.265704 54.077308 C 295.265704 54.077308, 296.862836 56.664204000000005, 297.807608 62.760272" fill="none" stroke="black" transform="translate(5,5)" /><path d="M 300.709432 51.512912 C 300.709432 51.512912, 302.733948 55.74192, 303.161356 59.970928" fill="none" stroke="black" transform="translate(5,5)" /><path d="M 310.832052 52.255236 L 309.842288 51.940315999999996 M 309.842288 51.940315999999996 C 309.842288 51.940315999999996, 311.101992 70.678416, 298.954844 80.441124" fill="none" stroke="black" transform="translate(5,5)" /><path d="M 315.19666 57.325836 L 332.852508 57.325836" fill="none" stroke="black" transform="translate(5,5)" /><path d="M 326.203728 47.018636 L 325.28116800000004 47.018636 M 325.28116800000004 47.018636 L 325.185688 77.303984 M 325.185688 77.303984 C 325.185688 77.303984, 325.535608 80.962404, 322.831584 80.994216 M 322.831584 80.994216 L 321.32049600000005 80.97861599999999" fill="none" stroke="black" transform="translate(5,5)" /><path d="M 315.482972 76.604112 C 315.482972 76.604112, 324.708548 63.974616, 324.358608 57.38946" fill="none" stroke="black" transform="translate(5,5)" /><path d="M 341.410032 49.818124 L 340.39203200000003 49.818124 M 340.39203200000003 49.818124 L 340.36003200000005 67.760284" fill="none" stroke="black" transform="translate(5,5)" /><path d="M 350.985544 48.291132 L 349.872104 48.323131999999994 M 349.872104 48.323131999999994 L 349.90410399999996 66.26529199999999 M 349.90410399999996 66.26529199999999 C 349.90410399999996 66.26529199999999, 349.99958399999997 75.90443199999999, 343.79613599999993 81.08984399999999" fill="none" stroke="black" transform="translate(5,5)" /><path d="M 357.857008 52.426736 L 372.63384 52.331295999999995 M 372.63384 52.331295999999995 L 373.190552 51.917739999999995 M 373.190552 51.917739999999995 L 373.747272 52.63352 M 373.747272 52.63352 L 373.222372 53.078891999999996 M 373.222372 53.078891999999996 C 373.222372 53.078891999999996, 371.695372 59.457268, 368.60958 63.465619999999994" fill="none" stroke="black" transform="translate(5,5)" /><path d="M 366.987144 57.294024 L 366.000968 57.326024 M 366.000968 57.326024 L 365.937368 67.092412 M 365.937368 67.092412 C 365.937368 67.092412, 365.969368 74.53649999999999, 361.19732799999997 80.739908" fill="none" stroke="black" transform="translate(5,5)" /><path d="M 388.5241 46.795952 L 387.442484 46.859592 M 387.442484 46.859592 L 387.410484 81.757732" fill="none" stroke="black" transform="translate(5,5)" /><path d="M 396.063624 57.357648 L 378.88496 57.29402" fill="none" stroke="black" transform="translate(5,5)" /><path d="M 383.625 64.579048 L 382.79788 64.006428 M 382.79788 64.006428 C 382.79788 64.006428, 381.016388 73.359256, 379.36215200000004 76.063304" fill="none" stroke="black" transform="translate(5,5)" /><path d="M 391.737148 64.4518 C 391.737148 64.4518, 395.30013199999996 71.67320000000001, 395.618256 75.649744" fill="none" stroke="black" transform="translate(5,5)" /><path d="M 402.74548 51.242976 L 414.08284 51.332936" fill="none" stroke="black" transform="translate(5,5)" /><path d="M 399.911152 61.500568 L 417.00716 61.455568" fill="none" stroke="black" transform="translate(5,5)" /><path d="M 409.089 61.455576 L 409.089 67.61913200000001 M 409.089 67.61913200000001 C 409.089 67.61913200000001, 409.58388 76.302092, 405.53484 81.47588" fill="none" stroke="black" transform="translate(5,5)" /><path d="M -2317.09644 -1140.77856 L 3205.28916 -1140.77856 M 3205.28916 -1140.77856 L 3205.28916 1797.36084 M 3205.28916 1797.36084 L -2317.09644 1797.36084 M -2317.09644 1797.36084 L -2317.09644 -1140.77856" fill="none" stroke="black" transform="translate(5,5)" /><path d="M 421.41508 55.529428 L 435.9672 54.537240000000004 M 435.9672 54.537240000000004 L 436.794 53.975 M 436.794 53.975 L 437.38932 54.801824 M 437.38932 54.801824 L 436.66172 55.264844000000004 M 436.66172 55.264844000000004 C 436.66172 55.264844000000004, 433.9828 65.748956, 429.7164 71.205988" fill="none" stroke="black" transform="translate(10,5)" /><path d="M 425.94608 65.153644 C 425.94608 65.153644, 431.66772 73.058072, 433.18904 78.316664" fill="none" stroke="black" transform="translate(10,5)" /><path d="M -2317.09644 -1140.77856 L 3205.28916 -1140.77856 M 3205.28916 -1140.77856 L 3205.28916 1797.36084 M 3205.28916 1797.36084 L -2317.09644 1797.36084 M -2317.09644 1797.36084 L -2317.09644 -1140.77856" fill="none" stroke="black" transform="translate(10,5)" /><path d="M 449.29556 48.121092 L 448.17108 47.724211999999994 M 448.17108 47.724211999999994 C 448.17108 47.724211999999994, 448.07188 55.661711999999994, 443.24324 66.9065" fill="none" stroke="black" transform="translate(10,5)" /><path d="M 460.27576 58.17526 L 446.51743999999997 58.241420000000005" fill="none" stroke="black" transform="translate(10,5)" /><path d="M 454.3888 58.307552 C 454.3888 58.307552, 454.5872 73.22344, 448.10492 81.16093599999999" fill="none" stroke="black" transform="translate(10,5)" /><path d="M -2317.09644 -1140.77856 L 3205.28916 -1140.77856 M 3205.28916 -1140.77856 L 3205.28916 1797.36084 M 3205.28916 1797.36084 L -2317.09644 1797.36084 M -2317.09644 1797.36084 L -2317.09644 -1140.77856" fill="none" stroke="black" transform="translate(10,5)" /><path d="M 477.68416 49.625268 L 476.51484 49.251107999999995 M 476.51484 49.251107999999995 C 476.51484 49.251107999999995, 475.53264 67.63256799999999, 465.61692 78.71757199999999" fill="none" stroke="black" transform="translate(10,5)" /><path d="M 468.8442 58.839388 C 468.8442 58.839388, 472.02472 61.037676, 477.63736 69.643756" fill="none" stroke="black" transform="translate(10,5)" /><path d="M -2317.09644 -1140.77856 L 3205.28916 -1140.77856 M 3205.28916 -1140.77856 L 3205.28916 1797.36084 M 3205.28916 1797.36084 L -2317.09644 1797.36084 M -2317.09644 1797.36084 L -2317.09644 -1140.77856" fill="none" stroke="black" transform="translate(10,5)" /><path d="M 486.61764 54.489576 C 486.89804 54.629896, 499.94768 54.583135999999996, 499.94768 54.583135999999996" fill="none" stroke="black" transform="translate(10,5)" /><path d="M 493.3996 54.723436 L 493.3996 74.04034" fill="none" stroke="black" transform="translate(10,5)" /><path d="M 501.63148 74.50806 L 485.07416 74.60162" fill="none" stroke="black" transform="translate(10,5)" /><path d="M -2317.09644 -1140.77856 L 3205.28916 -1140.77856 M 3205.28916 -1140.77856 L 3205.28916 1797.36084 M 3205.28916 1797.36084 L -2317.09644 1797.36084 M -2317.09644 1797.36084 L -2317.09644 -1140.77856" fill="none" stroke="black" transform="translate(10,5)" /><path d="M 514.82124 47.333432 L 513.5116399999999 47.380192 M 513.5116399999999 47.380192 L 513.46484 57.623296 M 513.46484 57.623296 C 513.46484 57.623296, 513.7924399999999 71.09368, 507.19736 80.073936" fill="none" stroke="black" transform="translate(10,5)" /><path d="M 506.35548 57.576536 L 520.38712 57.436215999999995 M 520.38712 57.436215999999995 L 519.8726399999999 74.508056 M 519.8726399999999 74.508056 C 519.8726399999999 74.508056, 520.38712 79.465908, 515.85024 79.325592 M 515.85024 79.325592 L 515.00832 79.372352" fill="none" stroke="black" transform="translate(10,5)" /><path d="M -2317.09644 -1140.77856 L 3205.28916 -1140.77856 M 3205.28916 -1140.77856 L 3205.28916 1797.36084 M 3205.28916 1797.36084 L -2317.09644 1797.36084 M -2317.09644 1797.36084 L -2317.09644 -1140.77856" fill="none" stroke="black" transform="translate(10,5)" /><path d="M 593.58556 50.934888 L 604.43672 50.981648" fill="none" stroke="black" transform="translate(10,5)" /><path d="M 591.76144 60.382868 L 605.46568 60.476428 M 605.46568 60.476428 C 605.46568 60.476428, 606.3076 74.367764, 596.15804 81.336816" fill="none" stroke="black" transform="translate(10,5)" /><path d="M -2317.09644 -1140.77856 L 3205.28916 -1140.77856 M 3205.28916 -1140.77856 L 3205.28916 1797.36084 M 3205.28916 1797.36084 L -2317.09644 1797.36084 M -2317.09644 1797.36084 L -2317.09644 -1140.77856" fill="none" stroke="black" transform="translate(10,5)" /><path d="M 619.02964 48.59628 L 617.8135599999999 48.59628 M 617.8135599999999 48.59628 L 617.9539599999999 74.69515200000001 M 617.9539599999999 74.69515200000001 C 617.9539599999999 74.69515200000001, 617.3926799999999 78.436924, 621.32156 78.296608 M 621.32156 78.296608 L 627.12124 78.249848" fill="none" stroke="black" transform="translate(10,5)" /><path d="M 611.87348 62.534388 L 627.26152 57.295904 M 627.26152 57.295904 L 627.68248 57.997488 M 627.68248 57.997488 C 627.68248 57.997488, 627.44848 63.095651999999994, 623.6600800000001 68.988948" fill="none" stroke="black" transform="translate(10,5)" /><path d="M -2317.09644 -1140.77856 L 3205.28916 -1140.77856 M 3205.28916 -1140.77856 L 3205.28916 1797.36084 M 3205.28916 1797.36084 L -2317.09644 1797.36084 M -2317.09644 1797.36084 L -2317.09644 -1140.77856" fill="none" stroke="black" transform="translate(10,5)" /><path d="M 642.36892 46.585076 L 641.15288 46.678636 M 641.15288 46.678636 L 641.15288 55.284715999999996" fill="none" stroke="black" transform="translate(10,5)" /><path d="M 634.79184 55.612108 L 645.7365599999999 54.536348 M 645.7365599999999 54.536348 L 646.2977999999999 55.471788 M 646.2977999999999 55.471788 C 646.2977999999999 55.471788, 641.6206 65.527808, 633.90316 71.88882" fill="none" stroke="black" transform="translate(10,5)" /><path d="M 641.15288 81.991608 L 641.10608 64.311728" fill="none" stroke="black" transform="translate(10,5)" /><path d="M 645.2688 65.57458 C 645.2688 65.57458, 648.0751200000001 68.147048, 649.8992800000001 71.795276" fill="none" stroke="black" transform="translate(10,5)" /><path d="M -2317.09644 -1140.77856 L 3205.28916 -1140.77856 M 3205.28916 -1140.77856 L 3205.28916 1797.36084 M 3205.28916 1797.36084 L -2317.09644 1797.36084 M -2317.09644 1797.36084 L -2317.09644 -1140.77856" fill="none" stroke="black" transform="translate(10,5)" /><path d="M 656.54092 53.647676 L 666.5969200000001 52.338055999999995 M 666.5969200000001 52.338055999999995 L 667.06464 53.039635999999994 M 667.06464 53.039635999999994 C 667.06464 53.039635999999994, 660.8907200000001 73.75970799999999, 654.9038800000001 78.90464399999999" fill="none" stroke="black" transform="translate(10,5)" /><path d="M 670.29192 78.436924 C 670.29192 78.436924, 666.69048 69.877616, 662.99548 65.57458" fill="none" stroke="black" transform="translate(10,5)" /><path d="M -2317.09644 -1140.77856 L 3205.28916 -1140.77856 M 3205.28916 -1140.77856 L 3205.28916 1797.36084 M 3205.28916 1797.36084 L -2317.09644 1797.36084 M -2317.09644 1797.36084 L -2317.09644 -1140.77856" fill="none" stroke="black" transform="translate(10,5)" /><path d="M 683.622 47.52052 L 682.45268 47.146359999999994 M 682.45268 47.146359999999994 C 682.45268 47.146359999999994, 680.9091999999999 58.55876799999999, 677.12068 65.38750399999999" fill="none" stroke="black" transform="translate(10,5)" /><path d="M 681.18984 54.4428 L 688.6734 54.34924 M 688.6734 54.34924 L 689.1878800000001 53.928292 M 689.1878800000001 53.928292 L 689.9830000000001 54.770188 M 689.9830000000001 54.770188 L 689.1878800000001 55.237911999999994 M 689.1878800000001 55.237911999999994 C 689.1878800000001 55.237911999999994, 689.0474800000001 69.92437199999999, 679.6463600000001 81.523868" fill="none" stroke="black" transform="translate(10,5)" /><path d="M 682.31236 63.42306 C 682.31236 63.42306, 686.6154 67.866412, 688.90724 71.88882" fill="none" stroke="black" transform="translate(10,5)" /><path d="M -2317.09644 -1140.77856 L 3205.28916 -1140.77856 M 3205.28916 -1140.77856 L 3205.28916 1797.36084 M 3205.28916 1797.36084 L -2317.09644 1797.36084 M -2317.09644 1797.36084 L -2317.09644 -1140.77856" fill="none" stroke="black" transform="translate(10,5)" /><path d="M 698.402 53.13318 L 709.34668 52.291284000000005 M 709.34668 52.291284000000005 L 710.00148 51.870332000000005 M 710.00148 51.870332000000005 L 710.93692 52.89932 M 710.93692 52.89932 L 710.1418 53.460588 M 710.1418 53.460588 C 710.1418 53.460588, 709.25312 66.697108, 698.0746 78.904644" fill="none" stroke="black" transform="translate(10,5)" /><path d="M 701.02124 60.757044 C 701.02124 60.757044, 708.7854 68.755084, 711.6385200000001 76.472492" fill="none" stroke="black" transform="translate(10,5)" /><path d="M -2317.09644 -1140.77856 L 3205.28916 -1140.77856 M 3205.28916 -1140.77856 L 3205.28916 1797.36084 M 3205.28916 1797.36084 L -2317.09644 1797.36084 M -2317.09644 1797.36084 L -2317.09644 -1140.77856" fill="none" stroke="black" transform="translate(10,5)" /><path d="M 717.99952 67.58578 L 723.51864 56.781412 M 723.51864 56.781412 C 723.51864 56.781412, 724.267 54.72343600000001, 725.52984 56.921732000000006 M 725.52984 56.921732000000006 C 725.52984 56.921732000000006, 732.12472 69.550212, 734.60368 72.45008800000001" fill="none" stroke="black" transform="translate(10,5)" /><path d="M -2317.09644 -1140.77856 L 3205.28916 -1140.77856 M 3205.28916 -1140.77856 L 3205.28916 1797.36084 M 3205.28916 1797.36084 L -2317.09644 1797.36084 M -2317.09644 1797.36084 L -2317.09644 -1140.77856" fill="none" stroke="black" transform="translate(10,5)" /><path d="M 742.4146 51.449384 L 758.73808 51.402624 M 758.73808 51.402624 L 758.6444799999999 77.828896 M 758.6444799999999 77.828896 L 742.60164 77.922456 M 742.60164 77.922456 L 742.4146 51.449384" fill="none" stroke="black" transform="translate(10,5)" /><path d="M 742.46136 64.685908 L 758.64456 64.732668" fill="none" stroke="black" transform="translate(10,5)" /><path d="M -2317.09644 -1140.77856 L 3205.28916 -1140.77856 M 3205.28916 -1140.77856 L 3205.28916 1797.36084 M 3205.28916 1797.36084 L -2317.09644 1797.36084 M -2317.09644 1797.36084 L -2317.09644 -1140.77856" fill="none" stroke="black" transform="translate(10,5)" /><path d="M 73.291984 264.964328 C 73.291984 264.964328, 64.545592 263.56116000000003, 64.35849999999999 279.08952400000004 M 64.35849999999999 279.08952400000004 C 64.17142 294.617876, 72.824264 293.68243600000005, 72.824264 293.68243600000005 M 72.824264 293.68243600000005 C 72.824264 293.68243600000005, 81.991608 295.08559600000007, 81.477116 279.32338400000003 M 81.477116 279.32338400000003 C 80.96262 263.56116000000003, 73.291984 264.964328, 73.291984 264.964328" fill="none" stroke="black" transform="translate(10,5)" /><path d="M -2317.09644 -1140.77856 L 3205.28916 -1140.77856 M 3205.28916 -1140.77856 L 3205.28916 1797.36084 M 3205.28916 1797.36084 L -2317.09644 1797.36084 M -2317.09644 1797.36084 L -2317.09644 -1140.77856" fill="none" stroke="black" transform="translate(10,5)" /><path d="M 93.450788 269.547992 C 93.450788 269.547992, 100.56016 269.314112, 100.84079200000001 265.338504 M 100.84079200000001 265.338504 L 100.51339200000001 293.261488" fill="none" stroke="black" transform="translate(10,217.216496800149)" /><path d="M 107.950156 293.308252 L 93.170156 293.261492" fill="none" stroke="black" transform="translate(10,217.216496800149)" /><path d="M -2317.09644 -1140.77856 L 3205.28916 -1140.77856 M 3205.28916 -1140.77856 L 3205.28916 1797.36084 M 3205.28916 1797.36084 L -2317.09644 1797.36084 M -2317.09644 1797.36084 L -2317.09644 -1140.77856" fill="none" stroke="black" transform="translate(10,217.216496800149)" /><path d="M 118.473896 266.975524 C 118.473896 266.975524, 131.406016 260.443516, 133.581312 270.904388 M 133.581312 270.904388 C 134.449636 275.080116, 132.361876 278.620032, 128.343232 282.45286799999997 M 128.343232 282.45286799999997 C 124.324584 286.28570399999995, 118.240032 291.577684, 118.240032 291.577684 M 118.240032 291.577684 L 118.099712 292.88731199999995 M 118.099712 292.88731199999995 L 136.574716 293.0276319999999" fill="none" stroke="black" transform="translate(10,409.63719280014897)" /><path d="M -2317.09644 -1140.77856 L 3205.28916 -1140.77856 M 3205.28916 -1140.77856 L 3205.28916 1797.36084 M 3205.28916 1797.36084 L -2317.09644 1797.36084 M -2317.09644 1797.36084 L -2317.09644 -1140.77856" fill="none" stroke="black" transform="translate(10,409.63719280014897)" /><path d="M 145.454684 267.096872 C 145.454684 267.096872, 157.62552 262.53280800000005, 160.668228 268.750516 M 160.668228 268.750516 C 163.710936 274.968224, 155.111976 277.21718400000003, 155.111976 277.21718400000003 M 155.111976 277.21718400000003 L 152.333852 277.481784 M 152.333852 277.481784 L 152.400012 278.34168 M 152.400012 278.34168 C 152.400012 278.34168, 161.991156 278.34168, 161.925008 284.82397199999997 M 161.925008 284.82397199999997 C 161.858848 291.30626399999994, 157.49324 292.69532399999997, 157.49324 292.69532399999997 M 157.49324 292.69532399999997 C 157.49324 292.69532399999997, 150.87865599999998 295.67188799999997, 144.5948 291.835428" fill="none" stroke="black" transform="translate(10,566.0901088001489)" /><path d="M -2317.09644 -1140.77856 L 3205.28916 -1140.77856 M 3205.28916 -1140.77856 L 3205.28916 1797.36084 M 3205.28916 1797.36084 L -2317.09644 1797.36084 M -2317.09644 1797.36084 L -2317.09644 -1140.77856" fill="none" stroke="black" transform="translate(10,566.0901088001489)" /><path d="M 191.293764 284.294804 L 169.862512 284.228644 M 169.862512 284.228644 L 169.796352 282.70728799999995 M 169.796352 282.70728799999995 L 185.27447600000002 265.44322399999993 M 185.27447600000002 265.44322399999993 L 185.27448 293.9520839999999" fill="none" stroke="black" transform="translate(10,697.9608041572242)" /><path d="M -2317.09644 -1140.77856 L 3205.28916 -1140.77856 M 3205.28916 -1140.77856 L 3205.28916 1797.36084 M 3205.28916 1797.36084 L -2317.09644 1797.36084 M -2317.09644 1797.36084 L -2317.09644 -1140.77856" fill="none" stroke="black" transform="translate(10,697.9608041572242)" /><path d="M 216.693748 265.707808 L 201.149476 265.773968 M 201.149476 265.773968 L 201.480196 277.48178 M 201.480196 277.48178 C 201.480196 277.48178, 216.16457200000002 275.100528, 216.098428 285.088552 M 216.098428 285.088552 C 216.03226800000002 295.076572, 205.911968 293.62136399999997, 205.911968 293.62136399999997 M 205.911968 293.62136399999997 C 205.911968 293.62136399999997, 202.009364 293.687524, 198.900512 291.76928" fill="none" stroke="black" transform="translate(10,800.6191241572241)" /><path d="M -2317.09644 -1140.77856 L 3205.28916 -1140.77856 M 3205.28916 -1140.77856 L 3205.28916 1797.36084 M 3205.28916 1797.36084 L -2317.09644 1797.36084 M -2317.09644 1797.36084 L -2317.09644 -1140.77856" fill="none" stroke="black" transform="translate(10,800.6191241572241)" /><path d="M 225.028124 265.509372 L 243.48280799999998 265.77397199999996 M 243.48280799999998 265.77397199999996 L 243.68124799999998 267.49376399999994 M 243.68124799999998 267.49376399999994 L 229.59218399999997 293.22449199999994" fill="none" stroke="black" transform="translate(10,877.6208304150175)" /><path d="M -2317.09644 -1140.77856 L 3205.28916 -1140.77856 M 3205.28916 -1140.77856 L 3205.28916 1797.36084 M 3205.28916 1797.36084 L -2317.09644 1797.36084 M -2317.09644 1797.36084 L -2317.09644 -1140.77856" fill="none" stroke="black" transform="translate(10,877.6208304150175)" /><path d="M 262.797392 278.936976 C 262.797392 278.936976, 269.67656 275.695828, 269.279684 271.33020400000004 M 269.279684 271.33020400000004 C 268.88280399999996 266.96458, 265.37708 264.51718400000004, 261.342184 264.51718400000004 M 261.342184 264.51718400000004 C 257.30728799999997 264.51718400000004, 252.94166399999997 267.42760000000004, 253.206248 271.131768 M 253.206248 271.131768 C 253.470848 274.835936, 258.696352 277.34947600000004, 258.696352 277.34947600000004 M 258.696352 277.34947600000004 L 266.50156 280.72291200000006 M 266.50156 280.72291200000006 C 266.50156 280.72291200000006, 270.867184 282.0458280000001, 270.205724 287.73437200000006 M 270.205724 287.73437200000006 C 269.544268 293.42291200000005, 262.92968399999995 293.8197880000001, 262.92968399999995 293.8197880000001 M 262.92968399999995 293.8197880000001 C 262.92968399999995 293.8197880000001, 253.66926799999996 294.67968400000007, 252.41249599999995 288.0651000000001 M 252.41249599999995 288.0651000000001 C 251.15572799999995 281.4505160000001, 259.09322799999995 277.68020400000006, 259.09322799999995 277.68020400000006" fill="none" stroke="black" transform="translate(10,927.1640744150175)" /><path d="M -2317.09644 -1140.77856 L 3205.28916 -1140.77856 M 3205.28916 -1140.77856 L 3205.28916 1797.36084 M 3205.28916 1797.36084 L -2317.09644 1797.36084 M -2317.09644 1797.36084 L -2317.09644 -1140.77856" fill="none" stroke="black" transform="translate(10,927.1640744150175)" /><path d="M 296.862496 278.672392 C 296.862496 278.672392, 292.563016 282.111976, 287.20520400000004 281.847392 M 287.20520400000004 281.847392 C 281.847392 281.58279200000004, 279.069268 278.27551600000004, 279.20156000000003 273.513016 M 279.20156000000003 273.513016 C 279.33384 268.750516, 282.971872 264.71562, 287.46978800000005 264.781768 M 287.46978800000005 264.781768 C 291.967704 264.847928, 295.9364560000001 268.08906, 296.66406000000006 273.049996 M 296.66406000000006 273.049996 C 297.39166400000005 278.010932, 297.12708000000003 285.749996, 294.41510000000005 288.991144 M 294.41510000000005 288.991144 C 291.70312000000007 292.23228800000004, 287.33749600000004 294.811976, 281.18593200000004 293.48906" fill="none" stroke="black" transform="translate(10,950.7465202827628)" /><path d="M -2317.09644 -1140.77856 L 3205.28916 -1140.77856 M 3205.28916 -1140.77856 L 3205.28916 1797.36084 M 3205.28916 1797.36084 L -2317.09644 1797.36084 M -2317.09644 1797.36084 L -2317.09644 -1140.77856" fill="none" stroke="black" transform="translate(10,950.7465202827628)" /><path d="M 306.122912 265.641664 L 326.098956 265.57550399999997 M 326.098956 265.57550399999997 L 326.03279599999996 266.76613199999997 M 326.03279599999996 266.76613199999997 L 306.18904799999996 291.438524 M 306.18904799999996 291.438524 L 306.255208 292.893736 M 306.255208 292.893736 L 327.62031199999996 292.893736" fill="none" stroke="black" transform="translate(10,950.7465202827628)" /><path d="M -2317.09644 -1140.77856 L 3205.28916 -1140.77856 M 3205.28916 -1140.77856 L 3205.28916 1797.36084 M 3205.28916 1797.36084 L -2317.09644 1797.36084 M -2317.09644 1797.36084 L -2317.09644 -1140.77856" fill="none" stroke="black" transform="translate(10,950.7465202827628)" /><path d="M 340.981768 273.446872 L 339.59270399999997 273.54603199999997 M 339.59270399999997 273.54603199999997 L 339.69186399999995 275.728844 M 339.69186399999995 275.728844 L 341.114 275.728844 M 341.114 275.728844 L 340.981768 273.446872" fill="none" stroke="black" transform="translate(10,950.7465202827628)" /><path d="M 341.279424 290.446352 L 339.493484 290.41315199999997 M 339.493484 290.41315199999997 L 339.52668400000005 293.19127599999996 M 339.52668400000005 293.19127599999996 L 341.312624 293.224476 M 341.312624 293.224476 L 341.279424 290.446352" fill="none" stroke="black" transform="translate(10,950.7465202827628)" /><path d="M -2317.09644 -1140.77856 L 3205.28916 -1140.77856 M 3205.28916 -1140.77856 L 3205.28916 1797.36084 M 3205.28916 1797.36084 L -2317.09644 1797.36084 M -2317.09644 1797.36084 L -2317.09644 -1140.77856" fill="none" stroke="black" transform="translate(10,950.7465202827628)" /><path d="M 358.609632 290.31406 L 357.055204 290.38022 M 357.055204 290.38022 L 356.989044 293.059128 M 356.989044 293.059128 L 358.67575999999997 293.15828799999997 M 358.67575999999997 293.15828799999997 L 358.609632 290.31406" fill="none" stroke="black" transform="translate(10,950.7465202827628)" /><path d="M -2317.09644 -1140.77856 L 3205.28916 -1140.77856 M 3205.28916 -1140.77856 L 3205.28916 1797.36084 M 3205.28916 1797.36084 L -2317.09644 1797.36084 M -2317.09644 1797.36084 L -2317.09644 -1140.77856" fill="none" stroke="black" transform="translate(10,950.7465202827628)" /><path d="M 376.898952 278.044008 L 374.649996 278.07720800000004 M 374.649996 278.07720800000004 L 374.74915599999997 280.82226 M 374.74915599999997 280.82226 L 376.998116 280.85546000000005 M 376.998116 280.85546000000005 L 376.898952 278.044008" fill="none" stroke="black" transform="translate(10,950.7465202827628)" /><path d="M -2317.09644 -1140.77856 L 3205.28916 -1140.77856 M 3205.28916 -1140.77856 L 3205.28916 1797.36084 M 3205.28916 1797.36084 L -2317.09644 1797.36084 M -2317.09644 1797.36084 L -2317.09644 -1140.77856" fill="none" stroke="black" transform="translate(10,950.7465202827628)" /><path d="M 392.310932 276.85338 L 415.32968 276.88658000000004" fill="none" stroke="black" transform="translate(10,950.7465202827628)" /><path d="M 392.344004 285.617704 L 415.2966 285.617704" fill="none" stroke="black" transform="translate(10,950.7465202827628)" /><path d="M -2317.09644 -1140.77856 L 3205.28916 -1140.77856 M 3205.28916 -1140.77856 L 3205.28916 1797.36084 M 3205.28916 1797.36084 L -2317.09644 1797.36084 M -2317.09644 1797.36084 L -2317.09644 -1140.77856" fill="none" stroke="black" transform="translate(10,950.7465202827628)" /><path d="M 426.00088 267.115848 L 443.44692 277.125088" fill="none" stroke="black" transform="translate(10,950.7465202827628)" /><path d="M 443.44692 267.115848 L 425.86055999999996 277.31218" fill="none" stroke="black" transform="translate(10,950.7465202827628)" /><path d="M 434.60696 263.280532 L 434.41976 280.960404" fill="none" stroke="black" transform="translate(10,950.7465202827628)" /><path d="M -2317.09644 -1140.77856 L 3205.28916 -1140.77856 M 3205.28916 -1140.77856 L 3205.28916 1797.36084 M 3205.28916 1797.36084 L -2317.09644 1797.36084 M -2317.09644 1797.36084 L -2317.09644 -1140.77856" fill="none" stroke="black" transform="translate(10,950.7465202827628)" /><path d="M 465.28952 269.17382 L 465.24271999999996 293.308252" fill="none" stroke="black" transform="translate(10,950.7465202827628)" /><path d="M 477.68416 281.381356 L 452.98844 281.381356" fill="none" stroke="black" transform="translate(10,950.7465202827628)" /><path d="M -2317.09644 -1140.77856 L 3205.28916 -1140.77856 M 3205.28916 -1140.77856 L 3205.28916 1797.36084 M 3205.28916 1797.36084 L -2317.09644 1797.36084 M -2317.09644 1797.36084 L -2317.09644 -1140.77856" fill="none" stroke="black" transform="translate(10,950.7465202827628)" /><path d="M 486.57084 281.194264 L 498.0768 281.241024" fill="none" stroke="black" transform="translate(10,950.7465202827628)" /><path d="M -2317.09644 -1140.77856 L 3205.28916 -1140.77856 M 3205.28916 -1140.77856 L 3205.28916 1797.36084 M 3205.28916 1797.36084 L -2317.09644 1797.36084 M -2317.09644 1797.36084 L -2317.09644 -1140.77856" fill="none" stroke="black" transform="translate(10,950.7465202827628)" /><path d="M 530.39636 271.605976 L 508.55375999999995 281.24104 M 508.55375999999995 281.24104 L 530.16252 290.922876" fill="none" stroke="black" transform="translate(10,950.7465202827628)" /><path d="M -2317.09644 -1140.77856 L 3205.28916 -1140.77856 M 3205.28916 -1140.77856 L 3205.28916 1797.36084 M 3205.28916 1797.36084 L -2317.09644 1797.36084 M -2317.09644 1797.36084 L -2317.09644 -1140.77856" fill="none" stroke="black" transform="translate(10,950.7465202827628)" /><path d="M 542.93132 271.325336 L 564.49328 280.913636 M 564.49328 280.913636 L 543.25872 290.829328" fill="none" stroke="black" transform="translate(10,950.7465202827628)" /><path d="M -2317.09644 -1140.77856 L 3205.28916 -1140.77856 M 3205.28916 -1140.77856 L 3205.28916 1797.36084 M 3205.28916 1797.36084 L -2317.09644 1797.36084 M -2317.09644 1797.36084 L -2317.09644 -1140.77856" fill="none" stroke="black" transform="translate(10,950.7465202827628)" /><path d="M 580.95708 263.607928 L 580.9102800000001 278.15407200000004" fill="none" stroke="black" transform="translate(10,950.7465202827628)" /><path d="M 580.86356 287.274652 L 580.81676 302.05466" fill="none" stroke="black" transform="translate(10,950.7465202827628)" /><path d="M -2317.09644 -1140.77856 L 3205.28916 -1140.77856 M 3205.28916 -1140.77856 L 3205.28916 1797.36084 M 3205.28916 1797.36084 L -2317.09644 1797.36084 M -2317.09644 1797.36084 L -2317.09644 -1140.77856" fill="none" stroke="black" transform="translate(10,950.7465202827628)" /><path d="M 600.04012 263.514392 L 600.13372 301.77402" fill="none" stroke="black" transform="translate(10,950.7465202827628)" /><path d="M -2317.09644 -1140.77856 L 3205.28916 -1140.77856 M 3205.28916 -1140.77856 L 3205.28916 1797.36084 M 3205.28916 1797.36084 L -2317.09644 1797.36084 M -2317.09644 1797.36084 L -2317.09644 -1140.77856" fill="none" stroke="black" transform="translate(10,950.7465202827628)" /><path d="M 611.92028 282.41034 L 628.4308400000001 282.41034" fill="none" stroke="black" transform="translate(10,950.7465202827628)" /><path d="M 633.10804 282.45712 L 649.6186399999999 282.55068" fill="none" stroke="black" transform="translate(10,950.7465202827628)" /><path d="M -2317.09644 -1140.77856 L 3205.28916 -1140.77856 M 3205.28916 -1140.77856 L 3205.28916 1797.36084 M 3205.28916 1797.36084 L -2317.09644 1797.36084 M -2317.09644 1797.36084 L -2317.09644 -1140.77856" fill="none" stroke="black" transform="translate(10,950.7465202827628)" /></svg>