<?xml version="1.0" encoding="utf-8" ?>
<svg baseProfile="full" height="297mm" version="1.1" width="210mm" xmlns="http://www.w3.org/2000/svg" xmlns:ev="http://www.w3.org/2001/xml-events" xmlns:xlink="http://www.w3.org/1999/xlink"><defs /><rect fill="none" height="297mm" stroke="black" stroke-width="0.5" width="210mm" x="0" y="0" /><path d="M 50.390744999999995 43.256829 L 49.55567099999999 42.994389000000005 M 49.55567099999999 42.994389000000005 C 49.55567099999999 42.994389000000005, 48.983048999999994 51.106536000000006, 46.31081099999999 57.28608" fill="none" stroke="black" transform="translate(5,5)" /><path d="M 54.637692 41.61054 C 54.637692 41.61054, 58.001847 49.197783, 58.622187 57.119054999999996" fill="none" stroke="black" transform="translate(5,5)" /><path d="M 64.515423 38.222526 C 64.515423 38.222526, 69.645162 39.439347, 71.410749 40.918620000000004" fill="none" stroke="black" transform="translate(5,5)" /><path d="M 64.44384600000001 46.40625 C 64.44384600000001 46.40625, 68.881668 47.145885, 71.816355 49.60338899999999" fill="none" stroke="black" transform="translate(5,5)" /><path d="M 63.871224 54.42295800000001 C 63.871224 54.42295800000001, 69.97919399999999 56.45099400000001, 72.53213399999999 58.88463900000001" fill="none" stroke="black" transform="translate(5,5)" /><path d="M 81.284673 37.757388 L 80.576085 37.757388 M 80.576085 37.757388 L 80.643555 56.146820999999996 M 80.643555 56.146820999999996 C 80.643555 56.146820999999996, 80.609835 58.879932, 82.904274 58.913673 M 82.904274 58.913673 C 85.198734 58.947423, 89.24778900000001 58.81245299999999, 89.24778900000001 58.81245299999999" fill="none" stroke="black" transform="translate(5,5)" /><path d="M 80.576085 46.159167 C 80.576085 46.159167, 85.90734 45.113163, 89.180319 43.52728499999999" fill="none" stroke="black" transform="translate(5,5)" /><path d="M 106.316841 47.718651 L 93.647577 47.694651 M 93.647577 47.694651 L 93.684897 48.436758000000005" fill="none" stroke="black" transform="translate(5,5)" /><path d="M 116.671755 34.858371000000005 L 115.81282200000001 35.001531 M 115.81282200000001 35.001531 L 115.81282200000001 42.159306" fill="none" stroke="black" transform="translate(5,5)" /><path d="M 110.921673 49.913562 L 110.96937300000002 42.183162 M 110.96937300000002 42.183162 L 120.94254000000002 42.183162 M 120.94254000000002 42.183162 C 120.94254000000002 42.183162, 121.70604000000003 53.540166, 115.31175600000003 60.769521" fill="none" stroke="black" transform="translate(5,5)" /><path d="M 127.981041 37.125 C 127.981041 37.125, 130.128372 39.105318000000004, 130.677141 40.465295999999995" fill="none" stroke="black" transform="translate(5,5)" /><path d="M 125.976864 44.330496000000004 C 125.976864 44.330496000000004, 128.362788 46.597125, 128.86383600000002 48.004821" fill="none" stroke="black" transform="translate(5,5)" /><path d="M 137.787195 44.879259 C 137.787195 44.879259, 135.735297 53.301576, 127.981041 59.027795999999995 M 127.981041 59.027795999999995 L 128.124201 59.815152" fill="none" stroke="black" transform="translate(5,5)" /><path d="M 148.595436 36.003615 L 147.879663 36.07519500000001 M 147.879663 36.07519500000001 L 147.903363 50.58162300000001 M 147.903363 50.58162300000001 C 147.903363 50.58162300000001, 147.784083 57.954132, 144.205176 60.98425800000001" fill="none" stroke="black" transform="translate(5,5)" /><path d="M 141.246786 44.640665999999996 L 154.36938 44.664666" fill="none" stroke="black" transform="translate(5,5)" /><path d="M 158.40159 39.558645 L 168.327045 39.510915000000004" fill="none" stroke="black" transform="translate(5,5)" /><path d="M 157.08933 48.02868 L 169.92561 48.00468000000001" fill="none" stroke="black" transform="translate(5,5)" /><path d="M 162.767832 39.510926999999995 L 162.767832 55.425048000000004 M 162.767832 55.425048000000004 C 162.767832 55.425048000000004, 162.553092 58.192721999999996, 164.915166 58.335879 M 164.915166 58.335879 C 167.277231 58.479039, 169.18597799999998 58.38360900000001, 169.18597799999998 58.38360900000001" fill="none" stroke="black" transform="translate(5,5)" /><path d="M 175.174647 41.204934 L 183.644682 41.204934" fill="none" stroke="black" transform="translate(5,5)" /><path d="M 173.194326 55.305753 L 185.672721 55.35348300000001" fill="none" stroke="black" transform="translate(5,5)" /><path d="M 192.83049599999998 36.671673 L 192.114714 36.790983000000004 M 192.114714 36.790983000000004 L 192.090714 51.822312000000004" fill="none" stroke="black" transform="translate(5,5)" /><path d="M 199.057758 35.765022 L 198.24654600000002 35.836602 M 198.24654600000002 35.836602 L 198.174936 48.696741 M 198.174936 48.696741 C 198.174936 48.696741, 198.341946 55.878378, 193.66554000000002 60.530931" fill="none" stroke="black" transform="translate(5,5)" /><path d="M 202.30262399999998 44.569086 L 188.44039199999997 44.593086" fill="none" stroke="black" transform="translate(5,5)" /><path d="M 206.35869300000002 48.004821 L 206.50185299999998 38.986023 M 206.50185299999998 38.986023 L 216.069414 39.010023 M 216.069414 39.010023 L 216.11711400000002 43.877309999999994 M 216.11711400000002 43.877309999999994 C 216.11711400000002 43.877309999999994, 216.45114 54.470819999999996, 209.60353800000001 59.481263999999996" fill="none" stroke="black" transform="translate(5,5)" /><path d="M 221.44927800000002 40.557981 C 221.44927800000002 40.557981, 222.647127 42.498153, 223.355706 47.070204000000004" fill="none" stroke="black" transform="translate(5,5)" /><path d="M 225.532074 38.634684 C 225.532074 38.634684, 227.05046099999998 41.80644, 227.371017 44.978196" fill="none" stroke="black" transform="translate(5,5)" /><path d="M 233.12403899999998 39.191427 L 232.38171599999998 38.955237 M 232.38171599999998 38.955237 C 232.38171599999998 38.955237, 233.326494 53.008812, 224.21613299999999 60.330843" fill="none" stroke="black" transform="translate(5,5)" /><path d="M 236.397495 42.994377 L 249.63938100000001 42.994377" fill="none" stroke="black" transform="translate(5,5)" /><path d="M 244.65279600000002 35.263977 L 243.96087600000004 35.263977 M 243.96087600000004 35.263977 L 243.88926600000002 57.977987999999996 M 243.88926600000002 57.977987999999996 C 243.88926600000002 57.977987999999996, 244.15170600000002 60.72180300000001, 242.12368800000002 60.745661999999996 M 242.12368800000002 60.745661999999996 L 240.99037200000004 60.73396199999999" fill="none" stroke="black" transform="translate(5,5)" /><path d="M 236.612229 57.453084000000004 C 236.612229 57.453084000000004, 243.531411 47.980962, 243.268956 43.042095" fill="none" stroke="black" transform="translate(5,5)" /><path d="M 256.057524 37.363592999999995 L 255.29402400000004 37.363592999999995 M 255.29402400000004 37.363592999999995 L 255.27002400000003 50.820212999999995" fill="none" stroke="black" transform="translate(5,5)" /><path d="M 263.239158 36.218348999999996 L 262.40407799999997 36.242349 M 262.40407799999997 36.242349 L 262.42807799999997 49.69896899999999 M 262.42807799999997 49.69896899999999 C 262.42807799999997 49.69896899999999, 262.499688 56.92832399999999, 257.84710199999995 60.81738299999999" fill="none" stroke="black" transform="translate(5,5)" /><path d="M 268.392756 39.320052 L 279.47538000000003 39.24847199999999 M 279.47538000000003 39.24847199999999 L 279.892914 38.938305 M 279.892914 38.938305 L 280.310454 39.475139999999996 M 280.310454 39.475139999999996 L 279.916779 39.809169 M 279.916779 39.809169 C 279.916779 39.809169, 278.771529 44.592951, 276.457185 47.599214999999994" fill="none" stroke="black" transform="translate(5,5)" /><path d="M 275.240358 42.970518 L 274.500726 42.994518 M 274.500726 42.994518 L 274.453026 50.319309 M 274.453026 50.319309 C 274.453026 50.319309, 274.47702599999997 55.90237499999999, 270.897996 60.554930999999996" fill="none" stroke="black" transform="translate(5,5)" /><path d="M 291.39307499999995 35.096964 L 290.581863 35.144694 M 290.581863 35.144694 L 290.557863 61.318299" fill="none" stroke="black" transform="translate(5,5)" /><path d="M 297.04771800000003 43.018236 L 284.16372 42.970515000000006" fill="none" stroke="black" transform="translate(5,5)" /><path d="M 287.71875 48.434286 L 287.09841 48.004821 M 287.09841 48.004821 C 287.09841 48.004821, 285.762291 55.019442, 284.521614 57.047478" fill="none" stroke="black" transform="translate(5,5)" /><path d="M 293.802861 48.33885000000001 C 293.802861 48.33885000000001, 296.475099 53.754900000000006, 296.713692 56.737308" fill="none" stroke="black" transform="translate(5,5)" /></svg>